# xmcd
#
# Track frame offsets: 
#        150
#        18707
#        37378
#        54233
#        70488
#        98744
#        124165
#        140091
#        162943
#        183369
#        211781
#        234018
#
# Disc length: 3538 seconds
#
# Revision: 0
# Processed by: cddbd v1.5.2PL0 Copyright (c) Steve Scherf et al.
# Submitted via: ExactAudioCopy v1.0b3
#
DISCID=a80dd00c
DTITLE=Mark Crissinger - Fear No Journey
DYEAR=2009
DGENRE=Bluegrass
TTITLE0=Aura
TTITLE1=This Perfect Night
TTITLE2=Baja Blanket
TTITLE3=Fear No Journey
TTITLE4=That's Right
TTITLE5=Two Wrongs
TTITLE6=I Don't Know
TTITLE7=You Can't Run
TTITLE8=Another Day
TTITLE9=Each Day
TTITLE10=Crippled
TTITLE11=Freak Flag
EXTD=
EXTT0=
EXTT1=
EXTT2=
EXTT3=
EXTT4=
EXTT5=
EXTT6=
EXTT7=
EXTT8=
EXTT9=
EXTT10=
EXTT11=
PLAYORDER=
